<svg width="14" height="15" viewBox="0 0 14 15" fill="none" xmlns="http://www.w3.org/2000/svg">
<path d="M12.4444 1.5H11.6667V0H10.1111V1.5H3.88889V0H2.33333V1.5H1.55556C0.692222 1.5 0.00777777 2.175 0.00777777 3L0 13.5C0 14.325 0.692222 15 1.55556 15H12.4444C13.3 15 14 14.325 14 13.5V3C14 2.175 13.3 1.5 12.4444 1.5ZM12.4444 13.5H1.55556V6H12.4444V13.5ZM12.4444 4.5H1.55556V3H12.4444V4.5ZM4.66667 9H3.11111V7.5H4.66667V9ZM7.77778 9H6.22222V7.5H7.77778V9ZM10.8889 9H9.33333V7.5H10.8889V9ZM4.66667 12H3.11111V10.5H4.66667V12ZM7.77778 12H6.22222V10.5H7.77778V12ZM10.8889 12H9.33333V10.5H10.8889V12Z" fill="#A5A5A5"/>
</svg>
