<svg width="18" height="18" viewBox="0 0 18 18" fill="none" xmlns="http://www.w3.org/2000/svg">
<circle cx="9" cy="9" r="8.5" stroke="#FF3737"/>
<path d="M8.428 11.06L8.232 4.2H9.408L9.198 11.06H8.428ZM8.82 14.07C8.61467 14.07 8.43733 14 8.288 13.86C8.148 13.7107 8.078 13.538 8.078 13.342C8.078 13.1367 8.148 12.9687 8.288 12.838C8.43733 12.698 8.61467 12.628 8.82 12.628C9.03467 12.628 9.20733 12.698 9.338 12.838C9.478 12.9687 9.548 13.1367 9.548 13.342C9.548 13.538 9.478 13.7107 9.338 13.86C9.20733 14 9.03467 14.07 8.82 14.07Z" fill="#FF3737"/>
</svg>
