<svg width="15" height="13" viewBox="0 0 15 13" fill="none" xmlns="http://www.w3.org/2000/svg">
<path d="M13.7884 1.2069C13.003 0.432602 11.9631 0.00940442 10.8533 0.00940442C9.74348 0.00940442 8.70044 0.435737 7.91499 1.21003L7.50477 1.61442L7.08819 1.20376C6.30274 0.429467 5.25652 0 4.14671 0C3.04008 0 1.99704 0.426332 1.21477 1.19749C0.429315 1.97179 -0.00316257 3 1.74127e-05 4.09404C1.74127e-05 5.18809 0.435675 6.21317 1.22113 6.98746L7.19313 12.8746C7.27581 12.9561 7.38711 13 7.49523 13C7.60335 13 7.71465 12.9592 7.79733 12.8777L13.7821 7C14.5675 6.2257 15 5.19749 15 4.10345C15.0032 3.0094 14.5739 1.98119 13.7884 1.2069Z" fill="#FE0000"/>
</svg>
