<svg width="16" height="15" viewBox="0 0 16 15" fill="none" xmlns="http://www.w3.org/2000/svg">
<path d="M14.0052 1.39257C13.2074 0.499156 12.1512 0.0108513 11.0239 0.0108513C9.89668 0.0108513 8.83724 0.502773 8.03944 1.39619L7.62277 1.86279L7.19964 1.38896C6.40184 0.495539 5.33917 0 4.21191 0C3.08788 0 2.02845 0.491922 1.23387 1.38172C0.436065 2.27514 -0.00321229 3.46154 1.76865e-05 4.7239C1.76865e-05 5.98626 0.442525 7.16904 1.24033 8.06246L7.30623 14.8553C7.39021 14.9494 7.50326 15 7.61308 15C7.7229 15 7.83595 14.953 7.91993 14.8589L13.9988 8.07692C14.7966 7.18351 15.2358 5.99711 15.2358 4.73475C15.2391 3.47239 14.803 2.28599 14.0052 1.39257ZM13.3851 7.38606L7.61308 13.8245L1.85403 7.37521C1.22095 6.66627 0.872112 5.72583 0.872112 4.7239C0.872112 3.72197 1.21772 2.78153 1.8508 2.0762C2.48064 1.37087 3.32044 0.980227 4.21191 0.980227C5.10662 0.980227 5.94964 1.37087 6.58272 2.07982L7.31269 2.89728C7.48388 3.08898 7.75843 3.08898 7.92962 2.89728L8.65313 2.08705C9.28621 1.3781 10.1292 0.987461 11.0207 0.987461C11.9122 0.987461 12.752 1.3781 13.3851 2.08343C14.0181 2.79238 14.3637 3.73282 14.3637 4.73475C14.367 5.73668 14.0181 6.67712 13.3851 7.38606Z" fill="white"/>
</svg>
