<svg width="11" height="11" viewBox="0 0 11 11" fill="none" xmlns="http://www.w3.org/2000/svg">
<path d="M5.77629 3.37246H4.9466V6.64141L7.57394 8.19416L7.98879 7.52402L5.77629 6.23279V3.37246ZM8.45175 0L11 2.09485L10.292 2.93115L7.74209 0.837395L8.45175 0ZM2.54769 0L3.2568 0.83685L0.708 2.93115L0 2.0943L2.54769 0ZM5.49972 1.19316C2.75069 1.19316 0.521597 3.38881 0.521597 6.09658C0.521597 8.80436 2.75069 11 5.49972 11C8.24876 11 10.4778 8.80436 10.4778 6.09658C10.4778 3.38881 8.24876 1.19316 5.49972 1.19316ZM5.49972 9.91035C3.36466 9.91035 1.62785 8.1996 1.62785 6.09658C1.62785 3.99356 3.36466 2.28281 5.49972 2.28281C7.63479 2.28281 9.3716 3.99356 9.3716 6.09658C9.3716 8.1996 7.63479 9.91035 5.49972 9.91035Z" fill="black"/>
</svg>
